<svg xmlns="http://www.w3.org/2000/svg" xmlns:xlink="http://www.w3.org/1999/xlink" preserveAspectRatio="xMidYMid meet" version="1.0" viewBox="-0.6 -0.4 728.3 388.0" zoomAndPan="magnify" style="fill: rgb(0, 0, 0);" original_string_length="1940"><g id="__id131_scg6zjvwu"><path d="M716.03,185.53c-7.35-31.03-14.82-62.06-22.08-93.16c-2.83-23.02-22.14-43.14-45.82-43.96 C526.85,47.9,405.53,48.9,284.26,47.9c-6.48-13.68-13.23-27.21-20.13-40.64c-1.84-4.43-6.09-7.35-10.94-7.02 C198.91-0.18,144.59,0.33,90.27,0c-5.48,0.12-12.8-0.39-15.67,5.45c-7.68,13.83-14.37,28.23-21.21,42.51 c-14.61,0.78-29.28-0.24-43.9,0.72c-6.84,0.93-10.12,8.26-9.4,14.52c0.06,87.43-0.18,174.86,0.12,262.29 c-0.42,6.54,5.39,12.32,11.9,11.93c20.55,0.66,41.15-0.57,61.67,0.63c5.18,27.15,31.18,48.33,58.87,47.72 c18.89,0.36,36.39-9.73,48.2-24.01c12.35,15.21,31.33,25.28,51.25,23.98c26.57-0.87,50.67-21.6,55.89-47.63 c14.46-1.11,29.01-0.42,43.5-0.57c66.76,0.39,133.56-0.72,200.32,0.57c5.15,26.09,29.19,46.4,55.68,47.66 c28.59,1.84,56.46-19.46,61.88-47.69c21.42-1.54,42.96,0.39,64.38-0.9c11.21-1.84,9.55-15.27,9.49-23.65 C721.63,270.88,727.72,227.22,716.03,185.53z M695.78,204.99c-31.03-0.15-62.03,0.12-93.03-0.09c-0.24-28.11,0.06-56.19-0.09-84.27 c24.31,0.12,48.6-0.06,72.91-0.03C682.7,148.65,689.06,176.85,695.78,204.99z M24.2,72.43c206.95,0.06,413.9-0.03,620.84,0.06 c13.47-0.66,23.53,11.33,25.16,23.89c-215.32,0.3-430.65,0.03-646,0.15C24.2,88.49,24.2,80.47,24.2,72.43z M135.7,361.56 c-19.28,2.17-37.87-13.8-39.14-33.05c-1.63-16.39,9.43-32.84,25.19-37.51c20.07-7.08,43.78,7.59,46.61,28.62 C172.25,339.66,156.01,360.33,135.7,361.56z M234.97,361.2c-20.03,3.92-40.85-12.35-42-32.69c-1.57-16.36,9.46-32.75,25.19-37.48 c19.16-6.81,41.73,6.21,46.07,25.91C269.65,336.59,255.1,358.43,234.97,361.2z M596.51,361.2c-20.03,3.92-40.85-12.35-42-32.69 c-1.57-16.36,9.46-32.78,25.22-37.48c19.16-6.81,41.73,6.21,46.04,25.94C631.19,336.62,616.6,358.46,596.51,361.2z" style="fill: rgb(239, 235, 229);"/></g></svg>