<?xml version="1.0" encoding="UTF-8" standalone="no"?><svg xmlns="http://www.w3.org/2000/svg" xmlns:xlink="http://www.w3.org/1999/xlink" fill="#f6f4f5" height="126" preserveAspectRatio="xMidYMid meet" version="1" viewBox="-0.0 0.0 125.5 126.0" width="125.5" zoomAndPan="magnify"><g id="change1_1"><path d="M18.072,58.303c0.006,0.031,0.024,0.057,0.034,0.087c0.028,0.09,0.059,0.176,0.108,0.252 c0.023,0.035,0.054,0.061,0.081,0.093c0.052,0.061,0.104,0.119,0.168,0.166c0.037,0.027,0.078,0.045,0.119,0.067 c0.07,0.038,0.14,0.068,0.218,0.088c0.023,0.006,0.04,0.021,0.064,0.026c0.486,0.092,1.019,0.196,1.594,0.31 c3.195,0.628,7.572,1.487,13.035,1.965c1.161,0.102,2.4,0.198,3.691,0.299c5.393,0.422,11.504,0.9,16.612,2.021 c1.391,0.304,2.582,0.624,3.648,0.982c5.442,1.8,10.633,4.9,15.426,9.214c0.185,0.167,0.424,0.257,0.669,0.257 c0.054,0,0.107-0.004,0.162-0.013c0.299-0.05,0.561-0.232,0.709-0.496c2.434-4.32,5.35-7.839,8.669-10.457 c1.014-0.802,2.066-1.526,3.128-2.152c2.685-1.58,5.024-2.36,8.566-3.542c3.029-1.01,6.8-2.268,12.239-4.517 c2.4-0.998,4.767-2.039,7.234-3.182c0.001-0.001,0.003-0.001,0.004-0.002c0.01-0.004,0.019-0.008,0.028-0.013 c0.042-0.019,0.07-0.054,0.107-0.079c0.068-0.044,0.138-0.083,0.194-0.142c0.043-0.045,0.069-0.1,0.103-0.152 c0.036-0.056,0.078-0.107,0.103-0.169c0.028-0.07,0.033-0.145,0.044-0.22c0.007-0.049,0.029-0.094,0.029-0.145 c0-0.01-0.001-0.02-0.001-0.031c0-0.002,0-0.004,0-0.006c-0.012-15.598-7.562-30.371-20.201-39.523 c-4.881-3.544-10.285-6.117-16.061-7.646C74.508,0.553,70.273,0,66.01,0c-7.907,0-15.446,1.828-22.407,5.432 c-0.001,0.001-0.003,0-0.004,0.001c-0.001,0.001-0.002,0.002-0.003,0.002c-0.005,0.003-0.01,0.005-0.016,0.008 c-4.076,2.109-7.827,4.774-11.147,7.921C22.584,22.688,17.16,35.29,17.16,48.85c0,3.211,0.306,6.389,0.908,9.443 C18.069,58.297,18.072,58.299,18.072,58.303z M73.287,71.575c-4.743-4.08-9.855-7.043-15.209-8.813 c-0.892-0.299-1.869-0.573-2.956-0.832c0.244-2.337-0.204-4.028-1.336-5.025c-0.938-0.837-1.979-0.877-3.081-0.919 c-0.521-0.02-1.109-0.042-1.789-0.145c-1.266-0.188-5.105-1.128-6.102-2.917c-0.623-1.12,0.085-2.404,1.293-4.407 c1.275-2.115,2.722-4.514,2.035-7.36c-0.688-2.875-3.12-4.16-5.265-5.294c-2.061-1.089-4.007-2.118-4.522-4.392 c-0.338-1.499,0.027-3.082,0.38-4.613c0.5-2.169,1.018-4.412-0.611-6.226c-0.311-0.346-0.59-0.578-0.837-0.783 c-0.299-0.247-0.557-0.461-0.894-0.89c-0.699-0.882-0.818-2.345-0.366-4.337c2.86-2.676,6.055-4.967,9.497-6.855 c0.156,0.527,0.238,1.05,0.225,1.564c-0.044,1.525-0.789,2.534-1.651,3.702c-0.301,0.406-0.599,0.812-0.862,1.23 c-2.116,3.332-2.306,7.763-1.555,10.676c0.492,1.91,1.397,3.309,2.544,3.936c1.015,0.561,1.858,0.338,2.836,0.08 c0.488-0.129,1.097-0.29,1.903-0.417c3.35-0.528,5.734,0.208,7.652,0.798c1.115,0.344,2.193,0.676,3.262,0.676 c0.747,0,1.488-0.162,2.233-0.598c1.783-1.035,2.025-2.67,2.259-4.251c0.217-1.464,0.441-2.979,1.843-4.494 c1.564-1.693,3.392-2.068,5.158-2.431c1.885-0.388,3.833-0.787,4.953-2.825c0.991-1.793,0.61-3.596,0.275-5.187 c-0.33-1.561-0.614-2.908,0.201-4.243c0.657-1.068,1.862-1.844,3.555-2.327c5.21,1.413,10.098,3.72,14.549,6.853 c-0.231,0.772-0.423,1.538-0.545,2.322c-0.434,2.878,0.042,4.909,0.389,6.394c0.302,1.292,0.388,1.815,0.086,2.196 c-0.458,0.58-1.614,0.681-2.838,0.787c-1.674,0.146-3.758,0.326-5.223,1.873c-1.138,1.199-1.239,2.323-1.357,3.625 c-0.051,0.556-0.107,1.186-0.25,1.942c-0.496,2.68-2.724,4.08-4.878,5.435c-1.998,1.257-4.064,2.556-4.178,4.869 c-0.118,2.495,2.116,4.286,4.277,6.019c1.719,1.378,3.496,2.803,3.231,4.079c-0.079,0.386-0.284,0.583-0.741,0.99 c-0.506,0.451-1.135,1.013-1.602,2.062c-1.066,2.385-0.422,5.439,1.868,9.071C78.186,64.654,75.545,67.803,73.287,71.575z" fill="inherit"/><path d="M60.397,32.516c-0.69-0.345-1.566-0.42-3.32-0.571c-0.002,0-0.101-0.008-0.103-0.009c-3.145-0.248-4.578-0.362-5.578,0.253 c-0.001,0.001-0.002,0.001-0.003,0.002c-1.222,0.758-2.068,2.38-2.265,4.34c-0.218,2.175,0.416,4.192,1.696,5.398 c1.044,0.981,2.318,1.288,3.779,1.288c1.127,0,2.365-0.183,3.695-0.378c2.318-0.349,3.994-0.6,4.975-2.076 c0.677-1.02,0.832-2.402,0.437-3.894C63.212,34.988,61.913,33.28,60.397,32.516z" fill="inherit"/><path d="M73.829,77.133c-6.122-4.953-14.5-8.762-24.91-11.323c-6.04-1.486-11.098-1.888-15.559-2.241 c-6.56-0.521-12.224-0.97-19.054-4.573C9.644,56.534,5.423,53.12,1.759,48.849c-0.282-0.329-0.745-0.436-1.143-0.272 c-0.399,0.166-0.647,0.571-0.613,1.002c0.795,10.088,3.402,19.678,7.771,28.547c4.779,9.685,12.778,25.894,28.274,30.258 c5.133,1.447,8.341,1.68,20.274,2.546l5.873,0.429c3.604,0.267,6.674,0.945,9.142,1.491c0.813,0.18,1.555,0.344,2.223,0.473 c0.434,0.087,0.861-0.122,1.069-0.506c0.207-0.384,0.142-0.858-0.162-1.172c-2.88-2.972-5.977-5.718-9.204-8.16 c-7.213-5.465-13.074-7.951-18.741-10.355c-3.418-1.45-6.646-2.819-10.02-4.783c-5.549-3.22-10.609-7.592-15.111-13.047 c5.555,4.434,11.39,7.969,17.427,10.552c1.105,0.472,2.296,0.946,3.569,1.454c5.215,2.078,11.705,4.664,19.523,9.945 c0.864,0.583,3.2,2.197,6.228,4.604c4.89,3.89,9.406,8.303,13.426,13.12c2.31,2.754,3.576,6.3,3.566,9.984 c-0.001,0.551,0.441,0.998,0.991,1.003l4.72,0.04c0.003,0,0.006,0,0.009,0c0.547,0,0.992-0.439,1-0.986 C92.018,112.715,89.901,90.141,73.829,77.133z M87.105,123.968c-0.201-3.797-1.605-7.415-4.007-10.278 c-4.105-4.919-8.72-9.428-13.716-13.402c-3.083-2.45-5.47-4.101-6.353-4.696c-7.997-5.401-14.599-8.031-19.902-10.146 c-1.257-0.501-2.433-0.969-3.523-1.435c-8.33-3.564-16.278-9.004-23.625-16.167c-0.364-0.354-0.935-0.38-1.329-0.061 c-0.394,0.32-0.485,0.885-0.213,1.313c5.865,9.214,12.951,16.272,21.061,20.978c3.482,2.026,6.767,3.42,10.244,4.895 c5.555,2.357,11.3,4.794,18.315,10.108c2.261,1.712,4.455,3.575,6.554,5.564c-2.312-0.502-5.071-1.043-8.267-1.278l-5.876-0.43 c-11.774-0.854-14.938-1.084-19.876-2.477c-14.64-4.122-22.392-19.832-27.044-29.26C5.741,69.471,3.304,61.14,2.286,52.394 c3.33,3.43,7.049,6.238,11.087,8.371c7.194,3.795,13.05,4.26,19.829,4.797c4.6,0.365,9.356,0.742,15.247,2.191 c10.114,2.489,18.23,6.168,24.122,10.935c14.996,12.137,17.322,33.181,17.287,45.304L87.105,123.968z" fill="inherit"/><path d="M124.65,38.86c-0.467-0.096-0.931,0.149-1.117,0.584c-2.347,5.443-5.539,9.78-9.492,12.892 c-4.474,3.535-8.892,4.825-13.568,6.191c-5.081,1.484-10.335,3.02-15.875,7.548c-2.975,2.429-5.564,5.337-7.697,8.643 c-0.284,0.442-0.179,1.029,0.243,1.344c2.21,1.648,4.181,3.58,5.856,5.74c1.819,2.353,3.288,4.966,4.367,7.768 c0.1,0.258,0.301,0.463,0.557,0.567c0.255,0.103,0.542,0.098,0.795-0.019c6.905-3.174,13.074-7.566,18.335-13.057 c2.835-2.961,5.343-6.183,7.504-9.634c-1.334,3.719-3.105,7.246-5.3,10.549C103.321,86.9,95.73,91.989,90.408,94.688 c-0.486,0.246-0.686,0.837-0.448,1.327c0.881,1.819,1.589,3.615,2.164,5.487c0.659,2.155,1.128,4.394,1.393,6.653 c0.039,0.334,0.243,0.626,0.543,0.776c0.142,0.072,0.296,0.107,0.45,0.107c0.172,0,0.344-0.044,0.497-0.133 c7.358-4.218,13.398-9.674,17.954-16.217c6.414-9.228,8.168-18.167,10.2-28.518c1.568-7.986,2.338-16.176,2.289-24.339 C125.447,39.36,125.113,38.954,124.65,38.86z M121.198,63.788c-1.988,10.129-3.705,18.878-9.879,27.761 c-4.118,5.913-9.503,10.909-16.022,14.866c-0.291-1.866-0.713-3.709-1.261-5.499c-0.505-1.643-1.13-3.284-1.862-4.892 c5.473-2.907,12.884-8.126,18.749-16.94c3.931-5.916,6.557-12.525,7.803-19.642c0.087-0.499-0.212-0.983-0.696-1.13 s-1.002,0.093-1.205,0.555c-2.739,6.244-6.514,11.899-11.216,16.812c-4.844,5.055-10.483,9.147-16.777,12.177 c-1.103-2.609-2.529-5.053-4.251-7.278c-1.595-2.056-3.439-3.917-5.491-5.542c1.917-2.813,4.192-5.304,6.773-7.411 c5.226-4.271,10.281-5.748,15.171-7.177c4.654-1.359,9.468-2.766,14.245-6.541c3.19-2.511,5.91-5.755,8.118-9.677 C123.197,50.801,122.46,57.361,121.198,63.788z" fill="inherit"/></g></svg>