<?xml version="1.0" encoding="UTF-8"?><svg xmlns="http://www.w3.org/2000/svg" xmlns:xlink="http://www.w3.org/1999/xlink" height="480.0" preserveAspectRatio="xMidYMid meet" version="1.0" viewBox="16.0 16.0 480.0 480.0" width="480.0" zoomAndPan="magnify"><g id="change1_1"><path d="M29.176,63.529c0.257,0,0.512-0.01,0.765-0.023c3.541-0.199,6.801,1.98,7.98,5.335c1.852,5.267,6.847,8.806,12.432,8.806 c3.148,0,6.086-1.078,8.495-3.116c1.472-1.246,3.311-1.894,5.169-1.894c1.107,0,2.221,0.229,3.269,0.699 c2.809,1.258,4.646,4.016,4.727,7.092C72.241,89.16,79.264,96,88,96c8.822,0,16-7.178,16-16c0-2.014-0.374-3.983-1.11-5.854 c-0.884-2.246-0.708-4.771,0.481-6.872s3.262-3.552,5.643-3.95C115.38,62.26,120,56.805,120,50.354 c0-7.266-5.911-13.177-13.176-13.177c-0.576,0-1.164,0.041-1.796,0.126c-3.558,0.481-6.993-1.476-8.41-4.771 C92.301,22.489,82.454,16,71.529,16c-11.449,0-21.763,7.229-25.666,17.986c-0.771,2.125-2.406,3.825-4.5,4.679 c-2.093,0.854-4.451,0.782-6.488-0.197c-1.781-0.856-3.698-1.291-5.7-1.291C21.911,37.177,16,43.088,16,50.354 S21.911,63.529,29.176,63.529z"/><path d="M141.772,132.302c2.333,1.942,3.365,5.038,2.665,7.992c-0.29,1.223-0.437,2.47-0.437,3.706c0,8.822,7.178,16,16,16 c4.418,0,8,3.582,8,8c0,4.411,3.589,8,8,8s8-3.589,8-8c0-3.237-1.933-6.137-4.925-7.387c-4.076-1.701-6.001-6.385-4.301-10.462 c0.813-1.95,1.226-4.02,1.226-6.151c0-4.418,3.582-8,8-8c3.591,0,6.986-1.167,9.818-3.374c2.679-2.088,6.383-2.258,9.241-0.42 C206.923,134.688,211.398,136,216,136c13.234,0,24-10.767,24-24s-10.766-24-24-24c-2.404,0-4.779,0.355-7.059,1.056 c-2.833,0.869-5.913,0.104-8.007-1.991c-2.094-2.094-2.86-5.175-1.99-8.006C199.645,76.779,200,74.404,200,72 c0-13.233-10.766-24-24-24s-24,10.767-24,24c0,6.966,3.03,13.582,8.314,18.152c2.668,2.309,3.509,6.092,2.07,9.313 c-1.438,3.22-4.822,5.118-8.318,4.673C153.336,104.045,152.66,104,152,104c-8.822,0-16,7.178-16,16 C136,124.763,138.104,129.247,141.772,132.302z"/><path d="M336,72c4.418,0,8,3.582,8,8c0,8.822,7.178,16,16,16c5.817,0,11.185-3.169,14.009-8.27 c1.198-2.164,3.331-3.653,5.776-4.031c2.448-0.373,4.928,0.397,6.725,2.099C388.009,87.218,389.958,88,392,88c4.411,0,8-3.589,8-8 c0-2.431-1.048-4.164-1.927-5.191c-1.669-1.95-2.302-4.582-1.701-7.077c0.601-2.495,2.363-4.551,4.738-5.526 C410.155,58.489,416,49.773,416,40c0-13.233-10.767-24-24-24c-7.619,0-14.619,3.501-19.204,9.604 c-1.274,1.696-3.17,2.817-5.271,3.116c-2.102,0.296-4.234-0.25-5.93-1.525C358.812,25.105,355.494,24,352,24 c-8.822,0-16,7.178-16,16c0,2.132,0.413,4.201,1.226,6.151c1.701,4.077-0.225,8.761-4.301,10.462C329.933,57.863,328,60.763,328,64 C328,68.411,331.589,72,336,72z"/><path d="M267.077,175.385c4.418,0,8,3.582,8,8c0,4.75,3.865,8.615,8.615,8.615c3.132,0,6.023-1.707,7.545-4.455 c1.199-2.165,3.332-3.653,5.777-4.031c2.445-0.374,4.929,0.397,6.724,2.1c0.409,0.387,1.106,0.849,2.107,0.849 c1.696,0,3.077-1.381,3.077-3.077c0-0.931-0.404-1.598-0.742-1.993c-1.669-1.949-2.302-4.582-1.701-7.077s2.363-4.551,4.737-5.525 c5.335-2.192,8.783-7.333,8.783-13.097c0-7.805-6.35-14.154-14.154-14.154c-4.493,0-8.622,2.065-11.327,5.667 c-2.654,3.531-7.668,4.245-11.201,1.591c-1.497-1.124-3.283-1.719-5.165-1.719c-4.75,0-8.615,3.865-8.615,8.615 c0,1.149,0.222,2.263,0.658,3.31c1.701,4.077-0.224,8.761-4.3,10.463c-0.875,0.365-1.897,1.329-1.897,2.843 C264,174.004,265.38,175.385,267.077,175.385z"/><path d="M432.269,150.009c2.165,1.198,3.653,3.331,4.031,5.777c0.378,2.445-0.397,4.928-2.099,6.725 C432.782,164.009,432,165.958,432,168c0,4.411,3.589,8,8,8s8-3.589,8-8c0-2.042-0.782-3.991-2.201-5.489 c-1.702-1.797-2.477-4.279-2.099-6.725s1.866-4.578,4.031-5.777c2.327-1.288,4.318-3.158,5.757-5.408 c2.288-3.578,6.974-4.745,10.672-2.656c2.382,1.345,5.094,2.056,7.841,2.056c8.822,0,16-7.178,16-16 c0-5.268-2.599-10.2-6.953-13.194c-3.109-2.139-4.301-6.16-2.859-9.647C479.39,102.248,480,99.167,480,96 c0-2.27-0.324-4.532-0.962-6.725c-1.235-4.242,1.203-8.683,5.445-9.917C491.264,77.384,496,71.068,496,64 c0-5.481-2.766-10.523-7.399-13.487c-3.578-2.288-4.744-6.974-2.656-10.672C487.289,37.458,488,34.747,488,32 c0-8.822-7.178-16-16-16s-16,7.178-16,16c0,5.481,2.766,10.523,7.399,13.487c3.578,2.288,4.744,6.974,2.656,10.672 C464.711,58.542,464,61.253,464,64c0,4.418-3.582,8-8,8c-13.233,0-24,10.767-24,24c0,4.934,1.491,9.676,4.311,13.714 c1.349,1.932,1.778,4.358,1.173,6.635c-0.605,2.276-2.182,4.171-4.311,5.178C427.601,124.163,424,129.844,424,136 C424,141.817,427.168,147.186,432.269,150.009z"/><path d="M155.719 264L180.281 264 179.051 248 156.949 248z"/><path d="M63.674 136L63.007 152 80.993 152 80.326 136z"/><path d="M336,400h152v-88H336V400z M440,328c0-4.418,3.582-8,8-8h24c4.418,0,8,3.582,8,8v32c0,4.418-3.582,8-8,8h-24 c-4.418,0-8-3.582-8-8V328z M448,376h24c4.418,0,8,3.582,8,8s-3.582,8-8,8h-24c-4.418,0-8-3.582-8-8S443.582,376,448,376z M392,328 c0-4.418,3.582-8,8-8h24c4.418,0,8,3.582,8,8v32c0,4.418-3.582,8-8,8h-24c-4.418,0-8-3.582-8-8V328z M400,376h24 c4.418,0,8,3.582,8,8s-3.582,8-8,8h-24c-4.418,0-8-3.582-8-8S395.582,376,400,376z M344,328c0-4.418,3.582-8,8-8h24 c4.418,0,8,3.582,8,8v32c0,4.418-3.582,8-8,8h-24c-4.418,0-8-3.582-8-8V328z M352,376h24c4.418,0,8,3.582,8,8s-3.582,8-8,8h-24 c-4.418,0-8-3.582-8-8S347.582,376,352,376z"/><path d="M159.408 216L158.177 232 177.823 232 176.592 216z"/><path d="M56 336H72V352H56z"/><path d="M58.34 264L85.66 264 84.326 232 59.674 232z"/><path d="M61.674 184L82.326 184 81.658 168 62.342 168z"/><path d="M57.007 296L86.993 296 86.326 280 57.674 280z"/><path d="M456 336H464V352H456z"/><path d="M60.34 216L83.66 216 82.993 200 61.007 200z"/><path d="M436.34 296L459.659 296 458.993 280 437.007 280z"/><path d="M359.674 136L359.007 152 376.993 152 376.326 136z"/><path d="M358.065 174.603L357.674 184 378.326 184 377.933 174.552 377.658 168 358.342 168z"/><path d="M437.674 264L458.326 264 457.658 248 438.342 248z"/><path d="M439.674 216L439.007 232 456.993 232 456.326 216z"/><path d="M356.34 216L379.66 216 378.993 200 357.007 200z"/><path d="M353.007 296L382.993 296 382.326 280 353.674 280z"/><path d="M360 336H368V352H360z"/><path d="M408 336H416V352H408z"/><path d="M354.34 264L381.66 264 380.326 232 355.674 232z"/><path d="M153.255 296L182.745 296 181.515 280 154.485 280z"/><path d="M168 440H184V456H168z"/><path d="M328 440H344V456H328z"/><path d="M104 440H120V456H104z"/><path d="M40 440H56V456H40z"/><path d="M16,496h200v-56c0-4.418,3.582-8,8-8h64c4.418,0,8,3.582,8,8v56h200v-80H16V496z M440,432c0-4.418,3.582-8,8-8h32 c4.418,0,8,3.582,8,8v32c0,4.418-3.582,8-8,8h-32c-4.418,0-8-3.582-8-8V432z M376,432c0-4.418,3.582-8,8-8h32c4.418,0,8,3.582,8,8 v32c0,4.418-3.582,8-8,8h-32c-4.418,0-8-3.582-8-8V432z M312,432c0-4.418,3.582-8,8-8h32c4.418,0,8,3.582,8,8v32 c0,4.418-3.582,8-8,8h-32c-4.418,0-8-3.582-8-8V432z M152,432c0-4.418,3.582-8,8-8h32c4.418,0,8,3.582,8,8v32c0,4.418-3.582,8-8,8 h-32c-4.418,0-8-3.582-8-8V432z M88,432c0-4.418,3.582-8,8-8h32c4.418,0,8,3.582,8,8v32c0,4.418-3.582,8-8,8H96 c-4.418,0-8-3.582-8-8V432z M24,432c0-4.418,3.582-8,8-8h32c4.418,0,8,3.582,8,8v32c0,4.418-3.582,8-8,8H32c-4.418,0-8-3.582-8-8 V432z"/><path d="M32,400h176v-88H32V400z M152,328c0-4.418,3.582-8,8-8h32c4.418,0,8,3.582,8,8v32c0,4.418-3.582,8-8,8h-32 c-4.418,0-8-3.582-8-8V328z M160,376h32c4.418,0,8,3.582,8,8s-3.582,8-8,8h-32c-4.418,0-8-3.582-8-8S155.582,376,160,376z M96,328 c0-4.418,3.582-8,8-8h32c4.418,0,8,3.582,8,8v32c0,4.418-3.582,8-8,8h-32c-4.418,0-8-3.582-8-8V328z M104,376h32 c4.418,0,8,3.582,8,8s-3.582,8-8,8h-32c-4.418,0-8-3.582-8-8S99.582,376,104,376z M40,328c0-4.418,3.582-8,8-8h32 c4.418,0,8,3.582,8,8v32c0,4.418-3.582,8-8,8H48c-4.418,0-8-3.582-8-8V328z M48,376h32c4.418,0,8,3.582,8,8s-3.582,8-8,8H48 c-4.418,0-8-3.582-8-8S43.582,376,48,376z"/><path d="M392 440H408V456H392z"/><path d="M456 440H472V456H456z"/><path d="M232 448H280V496H232z"/><path d="M112 336H128V352H112z"/><path d="M168 336H184V352H168z"/><path d="M232,248c0,8.822,7.178,16,16,16c1.835,0,3.64-0.311,5.361-0.923c0.873-0.311,1.779-0.463,2.681-0.463 c1.706,0,3.392,0.545,4.795,1.596c2.145,1.606,3.343,4.18,3.192,6.854c-0.018,0.31-0.03,0.622-0.03,0.936 c0,2.132,0.413,4.201,1.226,6.151c1.701,4.077-0.225,8.761-4.301,10.462c-2.992,1.25-4.925,4.149-4.925,7.387 c0,3.385,2.154,6.413,5.359,7.537c2.337,0.819,4.164,2.676,4.945,5.026c0.782,2.351,0.43,4.931-0.952,6.986 c-0.885,1.316-1.353,2.855-1.353,4.45c0,4.411,3.589,8,8,8s8-3.589,8-8c0-3.385-2.154-6.413-5.359-7.537 c-2.337-0.819-4.164-2.676-4.945-5.026c-0.782-2.351-0.43-4.931,0.952-6.986c0.885-1.316,1.353-2.855,1.353-4.45 c0-4.418,3.582-8,8-8c8.822,0,16-7.178,16-16s-7.178-16-16-16c-1.835,0-3.64,0.311-5.361,0.923 c-2.522,0.898-5.33,0.474-7.476-1.133c-2.145-1.606-3.343-4.18-3.192-6.854c0.018-0.31,0.03-0.622,0.03-0.936 c0-8.822-7.178-16-16-16S232,239.178,232,248z"/></g></svg>